<?xml version="1.0" encoding="iso-8859-1"?>
<!-- Uploaded to: SVG Repo, www.svgrepo.com, Generator: SVG Repo Mixer Tools -->
<svg fill="#000000" height="800px" width="800px" version="1.1" id="Layer_1" xmlns="http://www.w3.org/2000/svg" xmlns:xlink="http://www.w3.org/1999/xlink" 
	 viewBox="0 0 480 480" xml:space="preserve">
<g>
	<g>
		<path d="M440,0H40C17.944,0,0,17.944,0,40v400c0,22.056,17.944,40,40,40h400c22.056,0,40-17.944,40-40V40
			C480,17.944,462.056,0,440,0z M464,440c0,13.232-10.768,24-24,24H40c-13.232,0-24-10.768-24-24V40c0-13.232,10.768-24,24-24h400
			c13.232,0,24,10.768,24,24V440z"/>
	</g>
</g>
<g>
	<g>
		<path d="M57.04,351.72c-15.336,0-27.816,12.48-27.816,27.816s12.48,27.816,27.816,27.816c15.344,0,27.824-12.48,27.824-27.816
			S72.384,351.72,57.04,351.72z M57.04,391.352c-6.512,0-11.816-5.304-11.816-11.816S50.52,367.72,57.04,367.72
			c6.52,0,11.824,5.304,11.824,11.816S63.552,391.352,57.04,391.352z"/>
	</g>
</g>
<g>
	<g>
		<path d="M417.432,272H368v-96h24c13.232,0,24-10.768,24-24s-10.768-24-24-24H88c-13.232,0-24,10.768-24,24s10.768,24,24,24h16v248
			c0,13.232,10.768,24,24,24h216c13.232,0,24-10.768,24-24V288h49.432c4.424,0,8-3.584,8-8C425.432,275.584,421.848,272,417.432,272
			z M352,424c0,4.408-3.584,8-8,8h-72V216c0-4.416-3.576-8-8-8s-8,3.584-8,8v216H128c-4.416,0-8-3.592-8-8V176h184v216
			c0,4.416,3.576,8,8,8s8-3.584,8-8V176h32V424z M360,160H112H88c-4.416,0-8-3.592-8-8s3.584-8,8-8h304c4.416,0,8,3.592,8,8
			s-3.584,8-8,8H360z"/>
	</g>
</g>
<g>
	<g>
		<path d="M424,40H56c-13.232,0-24,10.768-24,24v128c0,13.232,10.768,24,24,24h24c4.424,0,8-3.584,8-8s-3.576-8-8-8H56
			c-4.416,0-8-3.592-8-8V64c0-4.408,3.584-8,8-8h368c4.416,0,8,3.592,8,8v128c0,4.408-3.584,8-8,8h-32c-4.424,0-8,3.584-8,8
			s3.576,8,8,8h32c13.232,0,24-10.768,24-24V64C448,50.768,437.232,40,424,40z"/>
	</g>
</g>
<g>
	<g>
		<path d="M313.432,72H168c-13.232,0-24,10.768-24,24v8c0,4.416,3.576,8,8,8h177.432c4.416,0,6.568-3.584,6.568-8v-8
			C336,82.768,326.664,72,313.432,72z M160,96c0-4.408,3.584-8,8-8h145.432c4.416,0,8,3.592,8,8H160z"/>
	</g>
</g>
<g>
	<g>
		<circle cx="220" cy="244" r="12"/>
	</g>
</g>
<g>
	<g>
		<circle cx="220" cy="204" r="12"/>
	</g>
</g>
<g>
	<g>
		<circle cx="220" cy="284" r="12"/>
	</g>
</g>
<g>
	<g>
		<path d="M216,336c0-22.056-17.944-40-40-40c-22.056,0-40,17.944-40,40c0,7.088,1.88,13.896,5.488,20
			c-3.608,6.104-5.488,12.912-5.488,20c0,22.056,17.944,40,40,40c22.056,0,40-17.944,40-40c0-7.088-1.88-13.896-5.488-20
			C214.12,349.896,216,343.088,216,336z M194.568,361.024c3.56,4.4,5.432,9.576,5.432,14.976c0,13.232-10.768,24-24,24
			s-24-10.768-24-24c0-5.4,1.872-10.576,5.432-14.976c2.368-2.936,2.368-7.12,0-10.056C153.872,346.576,152,341.4,152,336
			c0-13.232,10.768-24,24-24s24,10.768,24,24c0,5.4-1.872,10.576-5.432,14.976C192.2,353.904,192.2,358.096,194.568,361.024z"/>
	</g>
</g>
</svg>