<?xml version="1.0" encoding="utf-8"?>
<!-- Generator: Adobe Illustrator 17.0.0, SVG Export Plug-In . SVG Version: 6.00 Build 0)  -->
<!DOCTYPE svg PUBLIC "-//W3C//DTD SVG 1.1//EN" "http://www.w3.org/Graphics/SVG/1.1/DTD/svg11.dtd">
<svg version="1.1" id="Layer_1" xmlns="http://www.w3.org/2000/svg" xmlns:xlink="http://www.w3.org/1999/xlink" x="0px" y="0px"
	 width="600px" height="600px" viewBox="0 0 600 600" enable-background="new 0 0 600 600" xml:space="preserve">
<path fill="#209E2E" d="M550,125c0-11.95-9.475-25-25-25H75c-15.5,0-25,12.975-25,25v350c0,15.525,13,25,25,25h450
	c11.95,0,25-9.475,25-25V125z M87.5,137.5h425v325h-425V137.5z M225,187.5c0-6.9-5.6-12.5-12.5-12.5s-12.5,5.6-12.5,12.5v225
	c0,6.9,5.6,12.5,12.5,12.5s12.5-5.6,12.5-12.5V187.5z M425,187.5c0-6.9-5.6-12.5-12.5-12.5s-12.5,5.6-12.5,12.5v225
	c0,6.9,5.6,12.5,12.5,12.5s12.5-5.6,12.5-12.5V187.5z M475,187.5c0-6.9-5.6-12.5-12.5-12.5s-12.5,5.6-12.5,12.5v225
	c0,6.9,5.6,12.5,12.5,12.5s12.5-5.6,12.5-12.5V187.5z M143.75,175c-10.35,0-18.75,8.4-18.75,18.75v212.5
	c0,10.35,8.4,18.75,18.75,18.75s18.75-8.4,18.75-18.75v-212.5C162.5,183.4,154.1,175,143.75,175z M281.25,175
	c-10.35,0-18.75,8.4-18.75,18.75v212.5c0,10.35,8.4,18.75,18.75,18.75S300,416.6,300,406.25v-212.5C300,183.4,291.6,175,281.25,175z
	 M356.25,174.675c-10.35,0-18.75,8.4-18.75,18.75v212.5c0,10.35,8.4,18.75,18.75,18.75s18.75-8.4,18.75-18.75v-212.5
	C375,183.075,366.6,174.675,356.25,174.675L356.25,174.675z"/>
</svg>
