<?xml version="1.0" encoding="utf-8"?>
<!-- Generator: Adobe Illustrator 17.0.0, SVG Export Plug-In . SVG Version: 6.00 Build 0)  -->
<!DOCTYPE svg PUBLIC "-//W3C//DTD SVG 1.1//EN" "http://www.w3.org/Graphics/SVG/1.1/DTD/svg11.dtd">
<svg version="1.1" id="Layer_1" xmlns="http://www.w3.org/2000/svg" xmlns:xlink="http://www.w3.org/1999/xlink" x="0px" y="0px"
	 width="600px" height="600px" viewBox="0 0 600 600" enable-background="new 0 0 600 600" xml:space="preserve">
<g>
	<g>
		<g>
			<path fill="#209E2E" d="M273.214,278.572c-20.675,0-37.501,16.824-37.501,37.501s16.824,37.501,37.501,37.501
				s37.501-16.824,37.501-37.501S293.889,278.572,273.214,278.572z M273.214,332.142c-8.861,0-16.072-7.211-16.072-16.072
				c0-8.861,7.211-16.072,16.072-16.072s16.072,7.211,16.072,16.072C289.285,324.931,282.077,332.142,273.214,332.142z"/>
			<path fill="#209E2E" d="M514.287,450.001c-17.852,0-34.248,6.292-47.14,16.743l-75.494-68.681
				c9.764-16.147,15.489-34.998,15.489-55.204c0-55.465-42.362-101.207-96.429-106.599v-87.113
				c36.286-5.225,64.286-36.434,64.286-74.146c0.003-41.355-33.642-75-74.997-75s-75.002,33.645-75.002,75
				c0,37.709,28,68.918,64.286,74.146v87.113c-54.067,5.394-96.429,51.137-96.429,106.599c0,20.201,5.722,39.049,15.481,55.194
				l-74.857,69.176c-12.983-10.755-29.632-17.227-47.767-17.227c-41.355,0-75,33.645-75,75c0,41.355,33.645,75,75,75
				s75.002-33.645,75.002-75c0-15.509-4.734-29.934-12.829-41.907l73.381-67.815c19.595,21.284,47.587,34.722,78.731,34.722
				s59.139-13.438,78.734-34.722l73.852,67.188c-8.366,12.098-13.298,26.743-13.298,42.534c0,41.355,33.645,75,75,75
				c41.355,0,75-33.645,75-75C589.286,483.645,555.642,450.001,514.287,450.001z M85.713,578.57
				c-29.538,0-53.573-24.034-53.573-53.573c0-29.538,24.034-53.573,53.573-53.573s53.573,24.034,53.573,53.573
				C139.286,554.539,115.251,578.57,85.713,578.57z M246.429,75c0-29.538,24.034-53.573,53.573-53.573
				c29.538,0,53.573,24.034,53.573,53.573s-24.034,53.573-53.573,53.573C270.463,128.572,246.429,104.538,246.429,75z
				 M300.001,428.571c-47.262,0-85.713-38.454-85.713-85.713s38.454-85.713,85.713-85.713s85.713,38.454,85.713,85.713
				S347.261,428.571,300.001,428.571z M514.287,578.57c-29.538,0-53.573-24.034-53.573-53.573c0-14.56,5.879-27.745,15.338-37.41
				l0.526-0.578c9.688-9.621,23.012-15.585,37.709-15.585c29.538,0,53.573,24.034,53.573,53.573
				C567.857,554.539,543.823,578.57,514.287,578.57z"/>
			<path fill="#209E2E" d="M514.287,482.144c-23.631,0-42.857,19.225-42.857,42.857c0,5.918,4.799,10.714,10.714,10.714
				s10.714-4.799,10.714-10.714c0-11.817,9.61-21.43,21.43-21.43c5.918,0,10.714-4.799,10.714-10.714
				C525,486.94,520.202,482.144,514.287,482.144z"/>
			<path fill="#209E2E" d="M85.713,482.144c-23.631,0-42.857,19.225-42.857,42.857c0,5.918,4.799,10.714,10.713,10.714
				S64.284,530.915,64.284,525c0-11.817,9.61-21.43,21.43-21.43c5.918,0,10.713-4.799,10.713-10.714
				C96.429,486.94,91.631,482.144,85.713,482.144z"/>
			<path fill="#209E2E" d="M310.715,42.857c0-5.918-4.799-10.713-10.714-10.713c-23.631,0-42.857,19.225-42.857,42.857
				c0,5.918,4.799,10.714,10.714,10.714c5.918,0,10.714-4.799,10.714-10.714c0-11.817,9.61-21.43,21.43-21.43
				C305.916,53.573,310.715,48.774,310.715,42.857z"/>
		</g>
	</g>
</g>
</svg>
