<?xml version="1.0" encoding="utf-8"?>
<!-- Generator: Adobe Illustrator 17.0.0, SVG Export Plug-In . SVG Version: 6.00 Build 0)  -->
<!DOCTYPE svg PUBLIC "-//W3C//DTD SVG 1.1//EN" "http://www.w3.org/Graphics/SVG/1.1/DTD/svg11.dtd">
<svg version="1.1" id="Layer_1" xmlns="http://www.w3.org/2000/svg" xmlns:xlink="http://www.w3.org/1999/xlink" x="0px" y="0px"
	 width="600px" height="600px" viewBox="0 0 600 600" enable-background="new 0 0 600 600" xml:space="preserve">
<g>
	<path fill="#209E2E" d="M318.973,2.331c-4.495,0-8.699,2.213-11.242,5.918c-7.435,10.828-182.091,266.683-182.091,396.088
		c0,106.604,86.728,193.332,193.332,193.332s193.33-86.728,193.33-193.332c0-129.405-174.654-385.26-182.089-396.088
		C327.671,4.546,323.466,2.331,318.973,2.331L318.973,2.331z M318.973,570.395c-91.565,0-166.058-74.493-166.058-166.058
		c0-102.925,127.047-304.367,166.058-363.788c39.011,59.421,166.056,260.861,166.056,363.788
		C485.029,495.902,410.536,570.395,318.973,570.395z"/>
	<path fill="#209E2E" d="M305.338,520.389c0,7.531,6.104,13.637,13.637,13.637c71.513,0,129.694-58.178,129.694-129.685
		c0-7.531-6.104-13.637-13.637-13.637c-7.533,0-13.637,6.106-13.637,13.637c0,56.47-45.946,102.411-102.42,102.411
		C311.441,506.752,305.338,512.857,305.338,520.389z"/>
	<path fill="#209E2E" d="M586.363,57.563h-26.5V31.062c0-7.531-6.104-13.637-13.637-13.637c-7.533,0-13.637,6.106-13.637,13.637
		v26.501h-26.501c-7.533,0-13.637,6.106-13.637,13.637c0,7.531,6.104,13.637,13.637,13.637h26.501v26.501
		c0,7.531,6.104,13.637,13.637,13.637c7.533,0,13.637-6.106,13.637-13.637V84.837h26.5c7.533,0,13.637-6.106,13.637-13.637
		C600,63.669,593.896,57.563,586.363,57.563z"/>
	<path fill="#209E2E" d="M93.914,468.191H67.413V441.69c0-7.531-6.104-13.637-13.637-13.637s-13.637,6.106-13.637,13.637v26.501
		H13.637C6.104,468.191,0,474.297,0,481.828c0,7.531,6.104,13.637,13.637,13.637h26.501v26.501c0,7.531,6.104,13.637,13.637,13.637
		s13.637-6.106,13.637-13.637v-26.501h26.501c7.533,0,13.637-6.106,13.637-13.637C107.551,474.297,101.447,468.191,93.914,468.191z"
		/>
</g>
</svg>
