<?xml version="1.0" encoding="utf-8"?>
<!-- Generator: Adobe Illustrator 17.0.0, SVG Export Plug-In . SVG Version: 6.00 Build 0)  -->
<!DOCTYPE svg PUBLIC "-//W3C//DTD SVG 1.1//EN" "http://www.w3.org/Graphics/SVG/1.1/DTD/svg11.dtd">
<svg version="1.1" id="Capa_1" xmlns="http://www.w3.org/2000/svg" xmlns:xlink="http://www.w3.org/1999/xlink" x="0px" y="0px"
	 width="600px" height="600px" viewBox="0 0 600 600" enable-background="new 0 0 600 600" xml:space="preserve">
<path id="XMLID_235_" fill="#209E2E" d="M434.967,339.161c-25.1,0-45.521,20.42-45.521,45.52s20.42,45.521,45.521,45.521
	c25.101,0,45.521-20.42,45.521-45.521C480.488,359.581,460.067,339.161,434.967,339.161z M434.967,407.897
	c-12.802,0-23.216-10.415-23.216-23.216c0-12.8,10.415-23.215,23.216-23.215c12.802,0,23.216,10.415,23.216,23.215
	C458.183,397.482,447.768,407.897,434.967,407.897z M588.848,533.303c6.159,0,11.152-4.994,11.152-11.152
	c0-6.159-4.993-11.152-11.152-11.152h-75.635c42.215-26.246,70.381-73.057,70.381-126.318c0-34.354-11.717-66.024-31.363-91.222
	V103.721c0-4.11-2.261-7.888-5.884-9.829L498.082,68.02c-1.621-0.868-3.431-1.323-5.27-1.323h-34.952
	c-3.952,0-7.609,2.091-9.613,5.498l-75.083,127.638h-99.937l-1.423-22.079c-0.378-5.869-5.249-10.434-11.129-10.434h-53.143V115.9
	h25.712c6.159,0,11.152-4.993,11.152-11.152c0-6.159-4.993-11.152-11.152-11.152h-36.59c-0.183-0.004-0.368-0.004-0.551,0h-36.588
	c-6.159,0-11.152,4.993-11.152,11.152c0,6.159,4.993,11.152,11.152,11.152h25.71v51.418h-55.829c-36.189,0-52.143,31.468-62,58.883
	l-20.976,58.348c-0.435,1.21-0.658,2.487-0.658,3.774v39.33C17.992,348.515,0,381.717,0,419.048
	c0,38.066,18.708,71.841,47.416,92.616c-4.287,1.554-7.349,5.664-7.349,10.487c0,6.159,4.993,11.152,11.152,11.152h206.478
	c6.159,0,11.152-4.993,11.152-11.152c0-6.159-4.993-11.152-11.152-11.152h-75.686c28.192-20.827,46.504-54.29,46.504-91.95
	c0-63.001-51.255-114.256-114.255-114.256c-16.427,0-32.062,3.487-46.192,9.756v-24.282l0.775-2.154h28.188
	c6.159,0,11.152-4.993,11.152-11.152s-4.993-11.152-11.152-11.152H76.862l11.526-32.059c11.268-31.341,23.148-44.124,41.01-44.124
	h120.821l1.423,22.079c0.378,5.869,5.249,10.434,11.129,10.434h116.773c3.952,0,7.609-2.091,9.613-5.498l75.083-127.638h25.773
	l39.912,21.394v160.031c-25.77-21.454-58.885-34.373-94.96-34.373c-58.609,0-109.401,34.096-133.582,83.498h-68.856
	c-6.159,0-11.152,4.993-11.152,11.152s4.993,11.152,11.152,11.152h60.102c-1.922,6.379-3.428,12.944-4.483,19.651h-35.349
	c-6.159,0-11.152,4.993-11.152,11.152s4.993,11.152,11.152,11.152h33.548c-0.001,0.29-0.003,0.579-0.003,0.868
	c0,53.261,28.167,100.072,70.38,126.318h-16.514c-6.159,0-11.152,4.993-11.152,11.152c0,6.159,4.993,11.152,11.152,11.152h248.64
	V533.303z M114.26,327.097c50.702,0,91.95,41.248,91.95,91.951c0,50.469-40.869,91.571-91.247,91.95h-1.405
	c-50.381-0.381-91.253-41.483-91.253-91.95C22.305,368.345,63.556,327.097,114.26,327.097z M435.791,510.998h-1.649
	c-69.273-0.448-125.495-56.941-125.495-126.318c0-69.654,56.667-126.32,126.32-126.32c69.655,0,126.323,56.667,126.323,126.32
	C561.29,454.057,505.065,510.551,435.791,510.998z M114.26,464.57c25.098,0,45.518-20.421,45.518-45.521s-20.419-45.52-45.518-45.52
	c-25.101,0-45.523,20.42-45.523,45.52C68.738,444.148,89.159,464.57,114.26,464.57z M114.26,395.833
	c12.8,0,23.214,10.414,23.214,23.215s-10.414,23.216-23.214,23.216c-12.803,0-23.218-10.415-23.218-23.216
	C91.043,406.247,101.457,395.833,114.26,395.833z M446.119,468.706c0,6.159-4.993,11.152-11.152,11.152
	c-52.48,0-95.176-42.696-95.176-95.176c0-6.159,4.993-11.152,11.152-11.152s11.152,4.993,11.152,11.152
	c0,40.182,32.69,72.871,72.871,72.871C441.126,457.553,446.119,462.547,446.119,468.706z M518.992,395.835
	c-6.159,0-11.152-4.993-11.152-11.152c0-40.182-32.69-72.871-72.872-72.871c-6.159,0-11.152-4.993-11.152-11.152
	s4.993-11.152,11.152-11.152c52.48,0,95.177,42.696,95.177,95.176C530.144,390.841,525.151,395.835,518.992,395.835z"/>
</svg>
