<?xml version="1.0" encoding="utf-8"?>
<!-- Generator: Adobe Illustrator 17.0.0, SVG Export Plug-In . SVG Version: 6.00 Build 0)  -->
<!DOCTYPE svg PUBLIC "-//W3C//DTD SVG 1.1//EN" "http://www.w3.org/Graphics/SVG/1.1/DTD/svg11.dtd">
<svg version="1.1" id="Layer_1" xmlns="http://www.w3.org/2000/svg" xmlns:xlink="http://www.w3.org/1999/xlink" x="0px" y="0px"
	 width="600px" height="600px" viewBox="0 0 600 600" enable-background="new 0 0 600 600" xml:space="preserve">
<g>
	<path fill="#209E2E" d="M548.414,534.1L468.98,342.332c-2.023-4.884-7.624-7.206-12.509-5.182
		c-4.885,2.025-7.206,7.625-5.182,12.509l71.81,173.363l-65.501-18.979c-4.3-1.247-8.891,0.655-11.05,4.578l-32.897,59.736
		L336.6,382.337c88.931-17.15,156.315-95.557,156.315-189.419C492.917,86.543,406.375,0,300,0S107.082,86.543,107.082,192.918
		c0,43.086,14.201,82.916,38.165,115.063L51.586,534.1c-1.408,3.401-0.743,7.307,1.712,10.049c2.454,2.742,6.264,3.835,9.799,2.811
		l77.276-22.393l38.809,70.477c1.69,3.068,4.911,4.956,8.385,4.956c0.176,0,0.354-0.005,0.531-0.014
		c3.675-0.204,6.908-2.496,8.317-5.897l74.216-179.174c2.023-4.886-0.296-10.486-5.182-12.509
		c-4.886-2.023-10.486,0.296-12.509,5.182l-66.594,160.769l-32.894-59.736c-2.16-3.923-6.754-5.825-11.051-4.578l-65.5,18.979
		l82.209-198.471c35.231,37.685,85.353,61.283,140.89,61.283c5.733,0,11.404-0.267,17.011-0.758l86.576,209.013
		c1.408,3.401,4.642,5.692,8.316,5.895c0.179,0.01,0.355,0.015,0.532,0.015c3.474,0,6.694-1.888,8.383-4.956l38.81-70.477
		l77.276,22.393c3.537,1.025,7.344-0.069,9.799-2.811S549.822,537.5,548.414,534.1L548.414,534.1z M126.231,192.918
		c0-95.816,77.953-173.769,173.769-173.769s173.768,77.953,173.768,173.769S395.816,366.686,300,366.686
		S126.231,288.734,126.231,192.918L126.231,192.918z"/>
	<path fill="#209E2E" d="M410.629,156.971c-1.102-3.393-4.002-5.893-7.522-6.484l-64.426-10.811l-30.19-57.931
		c-1.649-3.165-4.921-5.15-8.491-5.15c-3.568,0-6.841,1.985-8.491,5.15l-30.191,57.931l-64.425,10.811
		c-3.52,0.59-6.419,3.089-7.522,6.484c-1.103,3.394-0.227,7.12,2.274,9.666l45.766,46.615l-9.626,64.614
		c-0.526,3.53,0.955,7.058,3.843,9.157c2.885,2.096,6.701,2.414,9.895,0.825L300,258.726l58.476,29.122
		c1.352,0.673,2.812,1.005,4.268,1.005c1.988,0,3.963-0.618,5.629-1.828c2.888-2.099,4.368-5.627,3.843-9.157l-9.624-64.614
		l45.766-46.616C410.856,164.091,411.732,160.366,410.629,156.971z M345.585,203.24c-2.104,2.143-3.08,5.149-2.637,8.118
		l7.621,51.158l-46.3-23.057c-1.346-0.669-2.806-1.005-4.269-1.005c-1.462,0-2.925,0.334-4.268,1.005l-46.3,23.057l7.621-51.158
		c0.443-2.969-0.534-5.976-2.637-8.118l-36.236-36.909l51.009-8.561c2.962-0.497,5.519-2.354,6.906-5.017L300,106.887l23.904,45.868
		c1.389,2.663,3.945,4.52,6.906,5.017l51.01,8.561L345.585,203.24L345.585,203.24z"/>
	<path fill="#209E2E" d="M445.037,202.575c-5.243-0.701-10.056,2.991-10.749,8.234c-8.881,67.03-66.613,117.58-134.288,117.58
		c-74.699,0-135.471-60.771-135.471-135.471S225.301,57.447,300,57.447c67.676,0,125.406,50.548,134.288,117.58
		c0.693,5.243,5.515,8.937,10.749,8.234c5.24-0.694,8.928-5.507,8.233-10.749C443.133,95.997,377.242,38.298,300,38.298
		c-85.257,0-154.62,69.361-154.62,154.62S214.743,347.537,300,347.537c77.242,0,143.133-57.7,153.271-134.214
		C453.965,208.083,450.278,203.27,445.037,202.575L445.037,202.575z"/>
</g>
</svg>
